HIERARCHY
ROOT Hips
{
	OFFSET -0.179506 -22.333345 2.821913
	CHANNELS 6 Xposition Yposition Zposition Zrotation Yrotation Xrotation 
	JOINT LeftUpLeg
	{
		OFFSET 6.951974 -9.140623 -0.681533
		CHANNELS 3 Zrotation Yrotation Xrotation
		JOINT LeftLeg
		{
			OFFSET 3.427654 -37.519855 -0.449580
			CHANNELS 3 Zrotation Yrotation Xrotation
			JOINT LeftFoot
			{
				OFFSET -1.359570 -39.796059 -4.369333
				CHANNELS 3 Zrotation Yrotation Xrotation
				JOINT LeftToe
				{
					OFFSET 2.635814 -5.579078 11.928840
					CHANNELS 3 Zrotation Yrotation Xrotation
					End Site
					{
						OFFSET 0.000000 0.000000 0.000000
					}
				}
			}
		}
	}
	JOINT RightUpLeg
	{
		OFFSET -6.767048 -9.052170 -0.431982
		CHANNELS 3 Zrotation Yrotation Xrotation
		JOINT RightLeg
		{
			OFFSET -3.829005 -38.256897 -0.885003
			CHANNELS 3 Zrotation Yrotation Xrotation
			JOINT RightFoot
			{
				OFFSET 1.577377 -39.841461 -4.231180
				CHANNELS 3 Zrotation Yrotation Xrotation
				JOINT RightToe
				{
					OFFSET -2.537174 -4.814398 12.334795
					CHANNELS 3 Zrotation Yrotation Xrotation
					End Site
					{
						OFFSET 0.000000 0.000000 0.000000
					}
				}
			}
		}
	}
	JOINT Spine
	{
		OFFSET -0.253288 10.896323 -2.669631
		CHANNELS 3 Zrotation Yrotation Xrotation
		JOINT Spine1
		{
			OFFSET 0.548704 13.518043 0.109247
			CHANNELS 3 Zrotation Yrotation Xrotation
			JOINT Spine2
			{
				OFFSET 0.145701 5.292222 2.542457
				CHANNELS 3 Zrotation Yrotation Xrotation
				JOINT Neck
				{
					OFFSET -0.277840 21.387037 -4.285703
					CHANNELS 3 Zrotation Yrotation Xrotation
					JOINT Head
					{
						OFFSET 0.515184 6.496960 5.134897
						CHANNELS 3 Zrotation Yrotation Xrotation
						End Site
						{
							OFFSET 0.000000 0.000000 0.000000
						}
					}
				}
				JOINT LeftShoulder
				{
					OFFSET 7.884473 12.174932 -3.408961
					CHANNELS 3 Zrotation Yrotation Xrotation
					JOINT LeftArm
					{
						OFFSET 9.097692 3.046888 -0.886815
						CHANNELS 3 Zrotation Yrotation Xrotation
						JOINT LeftForeArm
						{
							OFFSET 25.961220 -1.277207 -2.745643
							CHANNELS 3 Zrotation Yrotation Xrotation
							JOINT LeftHand
							{
								OFFSET 24.923361 0.898606 -0.117091
								CHANNELS 3 Zrotation Yrotation Xrotation
								End Site
								{
									OFFSET 0.000000 0.000000 0.000000
								}
							}
						}
					}
				}
				JOINT RightShoulder
				{
					OFFSET -8.175920 11.883285 -3.861528
					CHANNELS 3 Zrotation Yrotation Xrotation
					JOINT RightArm
					{
						OFFSET -9.601238 3.255117 -0.914307
						CHANNELS 3 Zrotation Yrotation Xrotation
						JOINT RightForeArm
						{
							OFFSET -25.374195 -1.332924 -2.140099
							CHANNELS 3 Zrotation Yrotation Xrotation
							JOINT RightHand
							{
								OFFSET -25.529810 0.777228 -0.555919
								CHANNELS 3 Zrotation Yrotation Xrotation
								End Site
								{
									OFFSET 0.000000 0.000000 0.000000
								}
							}
						}
					}
				}
			}
		}
	}
}
MOTION
Frames: 17
Frame Time: 0.033333
-14.633817 -25.748047 99.782974 172.927777 0.297014 85.362994 3.565496 4.200828 10.339358 -2.562646 -3.549713 -4.027917 3.850653 8.491130 -7.998053 nan nan nan -2.422489 -3.184035 9.105105 3.736239 2.451235 -2.987160 5.894973 -1.059948 -3.196491 nan nan nan -0.348277 0.457971 5.516289 0.935338 -2.994961 2.263216 0.728518 -0.914883 2.301535 -1.172596 2.826534 -1.189187 -0.940345 -0.302807 0.782222 -24.155131 2.947692 3.969975 -61.080508 -6.355071 9.374812 5.912251 -26.210803 11.555613 -4.571264 -3.900468 -7.860214 24.836594 1.590649 3.469000 59.396577 6.372762 11.538355 -10.253406 18.790729 -3.707557 5.752038 2.589092 -8.709769 
-14.657323 -25.747871 99.730286 172.988570 0.381876 85.659723 3.620403 4.000015 9.990768 -2.474510 -3.591999 -4.092060 3.807000 8.536833 -8.004300 nan nan nan -2.291194 -3.114279 8.782306 3.687594 2.458016 -2.970501 6.034579 -1.301123 -3.169092 nan nan nan -0.194633 0.449780 5.073615 0.936780 -2.953473 2.329625 0.706767 -0.957180 2.368125 -1.163763 2.696002 -1.000833 -0.892012 -0.301803 0.706584 -24.141212 2.936621 4.084195 -61.152884 -6.522045 9.430532 6.027934 -26.112441 11.306301 -4.735517 -3.791274 -8.015775 24.829377 1.503886 3.481332 59.331172 6.386998 11.634754 -10.337346 18.836628 -3.688488 6.198564 2.303615 -8.791454 
-14.652299 -25.734638 99.714561 173.002162 0.408580 85.710323 3.654255 3.993152 9.924788 -2.472550 -3.566647 -4.081369 3.771031 8.544278 -7.968426 nan nan nan -2.237684 -3.104406 8.745803 3.648893 2.476413 -2.976351 6.100563 -1.350580 -3.126556 nan nan nan -0.168859 0.461461 4.962921 0.945760 -2.939369 2.379419 0.719025 -0.977893 2.399661 -1.173519 2.653695 -0.982924 -0.878160 -0.313144 0.668497 -24.131006 2.917355 4.094499 -61.192439 -6.577547 9.449242 6.030702 -26.010310 11.289176 -4.740486 -3.741504 -7.994618 24.836131 1.474931 3.459433 59.275070 6.393591 11.645458 -10.338790 18.858590 -3.714693 6.241451 2.268072 -8.801306 
-14.645180 -25.729395 99.722916 173.028378 0.397028 85.710223 3.647141 4.025558 9.903208 -2.571568 -3.507425 -3.996810 3.766326 8.565680 -8.015332 nan nan nan -2.238552 -3.111558 8.765992 3.641890 2.450064 -3.002471 6.127468 -1.380161 -3.127848 nan nan nan -0.192395 0.456361 4.955733 0.947233 -2.954757 2.375725 0.704066 -0.982692 2.410459 -1.226775 2.639155 -0.991336 -0.890329 -0.360356 0.736495 -24.133809 2.923281 4.100594 -61.168133 -6.587139 9.450919 5.997076 -25.978752 11.310196 -4.730476 -3.741810 -7.980477 24.909686 1.459777 3.444339 59.214642 6.389696 11.648529 -10.340133 18.842288 -3.757983 6.232522 2.264812 -8.798010 
-14.631438 -25.706219 99.673988 173.068062 0.420881 85.649158 3.755629 3.972445 10.027047 -2.605593 -3.665080 -4.089247 4.143290 8.523299 -8.044444 nan nan nan -2.257062 -3.107984 8.899459 3.719318 2.337981 -3.085733 6.038336 -1.256413 -3.179498 nan nan nan -0.261979 0.438787 5.004667 0.990820 -3.029243 2.381786 0.739253 -0.872306 2.063852 -1.250437 2.681453 0.788956 -0.076809 -0.201818 0.897659 -23.794399 2.779566 4.663327 -61.592340 -6.670214 9.281822 6.256457 -25.976290 10.986412 -4.860537 -3.619382 -8.633814 24.617257 1.563796 3.948285 59.561706 6.397621 11.337209 -10.465284 18.929637 -3.788708 6.335621 2.325028 -9.313675 
-14.324381 -25.717594 99.620796 172.408543 0.435305 85.918294 4.154990 3.495901 10.188780 -3.439481 -2.441886 -4.434661 4.961244 8.667253 -7.852659 nan nan nan -1.741985 -1.325892 8.882721 3.442180 2.199411 -3.717354 6.245373 -1.840622 -3.041851 nan nan nan -1.092041 0.408856 4.341776 1.544172 -2.832532 2.724080 0.918189 -0.389291 2.064745 -1.281413 3.068483 1.368270 0.104206 -0.376321 0.317447 -23.128159 2.789647 5.429640 -61.857766 -6.249825 10.252121 7.662344 -24.980673 12.971929 -6.021694 -10.706016 -9.943013 24.286422 1.563507 4.409247 60.408489 6.964227 11.799299 -11.009566 18.292395 -3.545376 5.383861 4.432827 -11.440356 
-14.332865 -25.704828 99.611565 172.375959 0.395598 86.001193 4.087570 3.471641 10.128323 -3.433073 -2.436063 -4.442501 5.028331 8.728926 -7.860249 nan nan nan -1.800983 -1.231805 8.803529 3.457950 2.222869 -3.688245 6.256573 -1.851552 -3.066466 nan nan nan -1.139798 0.357138 4.247058 1.570288 -2.832140 2.730192 0.911037 -0.325649 2.039598 -1.222003 3.081314 1.523068 -0.009503 -0.204636 0.119716 -23.127182 2.823876 5.476024 -61.909292 -6.217260 10.284481 7.691901 -25.040295 13.090812 -6.136896 -10.835471 -10.086454 24.122414 1.564137 4.486476 60.672637 7.026174 11.835759 -11.084146 18.339329 -3.573397 5.304762 4.384286 -11.707704 
-14.339972 -25.692272 99.603966 172.377705 0.382626 86.031514 4.072602 3.455147 10.100178 -3.446522 -2.408887 -4.429846 5.018823 8.730899 -7.879894 nan nan nan -1.816631 -1.208901 8.798229 3.457211 2.159289 -3.707819 6.240743 -1.834168 -3.057721 nan nan nan -1.135633 0.346443 4.210918 1.573894 -2.848512 2.733274 0.906177 -0.307482 2.035424 -1.207695 3.096087 1.577685 -0.098159 -0.079853 0.028712 -23.151043 2.812806 5.509638 -61.952221 -6.229331 10.269265 7.723131 -25.012579 13.051857 -6.256335 -10.850368 -10.118899 24.003894 1.577559 4.551737 60.875444 7.035925 11.855906 -11.247995 18.389278 -3.539094 5.452409 4.342877 -11.742190 
-14.346498 -25.688524 99.599609 172.395359 0.387431 86.067991 4.097265 3.440501 10.049137 -3.486434 -2.359749 -4.399567 4.985436 8.708423 -7.880724 nan nan nan -1.807584 -1.225603 8.818832 3.474484 2.116762 -3.807952 6.234056 -1.857844 -2.960613 nan nan nan -1.114548 0.353278 4.168783 1.570281 -2.870891 2.741721 0.902330 -0.315895 2.105059 -1.187291 3.029262 1.361281 -0.141778 -0.127309 0.027452 -23.210812 2.809070 5.464453 -61.947564 -6.261836 10.272908 7.745835 -24.970135 12.975496 -6.217307 -10.870469 -10.089062 23.979425 1.591064 4.531097 60.937065 7.039718 11.899246 -11.331602 18.462925 -3.515906 5.525040 4.336740 -11.687824 
-14.348720 -25.665886 99.603882 172.334561 0.387489 86.070360 4.079790 3.167484 10.140683 -3.549076 -2.164524 -4.508532 5.103380 8.805573 -7.793373 nan nan nan -1.812318 -1.061233 8.897968 3.562474 2.099437 -3.918188 6.277003 -2.039150 -2.840031 nan nan nan -1.119109 0.371764 4.048476 1.579934 -2.862637 2.847672 0.855561 -0.267582 2.354351 -1.366048 3.173814 0.802021 -0.219095 -0.261391 -0.004363 -23.239417 2.836772 5.234903 -62.021116 -6.380690 10.416224 7.931009 -24.766802 12.835336 -6.061717 -11.366558 -10.186657 24.020742 1.594504 4.358211 60.970116 7.066859 12.115332 -11.408806 18.445566 -3.602596 5.395436 4.602061 -11.784490 
-14.346194 -25.626081 99.610130 172.216257 0.367059 85.950455 3.992456 2.742958 10.434399 -3.559440 -1.934536 -4.729744 5.112198 9.039853 -7.667812 nan nan nan -1.859722 -1.015532 9.050698 3.612081 2.176824 -3.922702 6.293626 -2.118981 -2.804820 nan nan nan -1.104269 0.464221 4.137805 1.565968 -2.857825 2.885602 0.852467 -0.258729 2.382490 -1.345660 3.033157 0.678306 -0.299054 -0.394115 0.019267 -23.290286 2.839034 5.165979 -62.029380 -6.400065 10.432663 8.003919 -24.721406 12.622618 -6.035140 -11.362234 -10.312920 23.976516 1.634332 4.325652 61.064650 7.051309 12.184704 -11.503088 18.417708 -3.708371 5.412846 4.607124 -11.812239 
-14.354584 -25.598520 99.609566 172.182643 0.307723 85.884156 3.896338 2.558936 10.581511 -3.589089 -1.832157 -4.821004 5.136270 9.165413 -7.642661 nan nan nan -1.963669 -1.055622 9.128383 3.652553 2.200388 -3.894410 6.309673 -2.072244 -2.868686 nan nan nan -1.154893 0.514938 4.207995 1.546104 -2.874935 2.877508 0.864169 -0.238237 2.313206 -1.405693 3.224423 0.926663 -0.144525 -0.236664 0.002219 -23.250851 2.773882 5.272244 -62.109654 -6.383341 10.406454 8.080348 -24.726086 12.508167 -5.993022 -11.232436 -10.419593 23.937551 1.662235 4.442663 61.156203 7.071287 12.124562 -11.545379 18.415553 -3.724679 5.382350 4.577434 -11.902851 
-14.376227 -25.597294 99.607239 172.243088 0.247270 85.910640 3.820095 2.680568 10.509125 -3.572860 -1.910807 -4.749467 5.174529 9.110516 -7.688513 nan nan nan -2.073802 -1.104171 9.112076 3.698424 2.216376 -3.895073 6.316376 -2.068086 -2.892137 nan nan nan -1.207482 0.515592 4.178758 1.536793 -2.881885 2.867709 0.855830 -0.267792 2.288885 -1.417595 3.350265 1.126434 0.024924 -0.159745 0.042491 -23.204245 2.708148 5.392293 -62.165029 -6.410360 10.409585 8.102847 -24.707751 12.511483 -5.898477 -11.225829 -10.553130 23.920832 1.666689 4.499876 61.184622 7.095430 12.084017 -11.464507 18.431644 -3.719571 5.219011 4.590283 -12.080814 
-14.388595 -25.604124 99.607574 172.277883 0.227159 85.929575 3.777815 2.769787 10.437351 -3.523493 -1.975751 -4.665365 5.128252 9.070670 -7.760902 nan nan nan -2.110634 -1.124195 9.105973 3.714815 2.210691 -3.922259 6.354919 -2.094927 -2.864829 nan nan nan -1.206949 0.500036 4.158391 1.530001 -2.878981 2.880398 0.847539 -0.297847 2.370800 -1.385822 3.208606 0.829990 -0.097187 -0.312693 0.071194 -23.223726 2.702225 5.315384 -62.172279 -6.442830 10.434846 8.075364 -24.662246 12.480885 -5.810728 -11.242074 -10.580563 23.923932 1.679156 4.408078 61.195371 7.105641 12.123743 -11.419623 18.437215 -3.817293 5.111030 4.584823 -12.161664 
-14.393708 -25.606438 99.599899 172.303338 0.224809 85.933958 3.762653 2.772424 10.410876 -3.495494 -1.990980 -4.626467 5.087552 9.062309 -7.764439 nan nan nan -2.107656 -1.158311 9.108181 3.659583 2.235647 -3.934515 6.379919 -2.048245 -2.907762 nan nan nan -1.198869 0.463223 4.192286 1.532757 -2.895633 2.859114 0.845785 -0.296617 2.421552 -1.386260 3.154372 0.571865 -0.250229 -0.347112 0.090517 -23.241921 2.760318 5.226568 -62.208126 -6.449409 10.441092 8.106519 -24.658329 12.469230 -5.845120 -11.285801 -10.604079 23.914767 1.667126 4.333722 61.221809 7.126506 12.163903 -11.436666 18.423508 -3.903943 5.145032 4.601038 -12.179253 
-14.396269 -25.597986 99.588058 172.315855 0.206949 85.928819 3.735930 2.781499 10.419934 -3.489107 -1.992753 -4.625635 5.126348 9.081201 -7.739727 nan nan nan -2.107277 -1.165203 9.112931 3.564837 2.317851 -3.919664 6.386256 -1.973122 -3.024922 nan nan nan -1.232722 0.450350 4.224558 1.545902 -2.901399 2.825013 0.847110 -0.284013 2.439471 -1.398807 3.198585 0.576094 -0.237967 -0.328282 0.079283 -23.217974 2.802714 5.222061 -62.245901 -6.450697 10.450220 8.108011 -24.697779 12.453656 -5.807417 -11.291042 -10.613106 23.935778 1.664875 4.333940 61.221505 7.122754 12.169434 -11.472443 18.437899 -3.957639 5.120611 4.598829 -12.208884 
-14.387044 -25.593321 99.579536 172.312041 0.242349 85.972056 3.783582 2.801628 10.374270 -3.500863 -1.970720 -4.622464 5.232346 9.078994 -7.756627 nan nan nan -2.043084 -1.130944 9.047283 3.525216 2.356290 -3.884075 6.358484 -1.947548 -3.103626 nan nan nan -1.194199 0.455788 4.155163 1.568100 -2.874517 2.832955 0.824995 -0.291589 2.472019 -1.391580 3.173849 0.552527 -0.239007 -0.387567 0.080318 -23.220807 2.785089 5.216484 -62.225446 -6.480197 10.459889 8.070605 -24.658788 12.433798 -5.786890 -11.280939 -10.573170 23.940412 1.668521 4.313804 61.259642 7.104888 12.176112 -11.535800 18.444417 -4.000406 5.111046 4.622961 -12.261336 
